<svg xmlns="http://www.w3.org/2000/svg" xmlns:xlink="http://www.w3.org/1999/xlink" viewBox="0 0 500 500" width="500" height="500" preserveAspectRatio="xMidYMid meet" style="width: 100%; height: 100%; transform: translate3d(0px, 0px, 0px); content-visibility: visible;"><defs><clipPath id="__lottie_element_2"><rect width="500" height="500" x="0" y="0"></rect></clipPath></defs><g clip-path="url(#__lottie_element_2)"><g transform="matrix(1,0,0,1,0,0)" opacity="1" style="display: block;"><g opacity="1" transform="matrix(1,0,0,1,0,0)"><g opacity="1" transform="matrix(1,0,0,1,390.3330078125,229.98500061035156)"><path stroke-linecap="round" stroke-linejoin="round" fill-opacity="0" stroke="rgb(51,177,201)" stroke-opacity="1" stroke-width="8.427999999999999" d="M0 0"></path></g><g opacity="1" transform="matrix(1,0,0,1,390.3330078125,270.0150146484375)"><path stroke-linecap="round" stroke-linejoin="round" fill-opacity="0" stroke="rgb(51,177,201)" stroke-opacity="1" stroke-width="8.427999999999999" d=" M-140.33299255371094,140.10400390625 C-140.33299255371094,140.10400390625 -140.33299255371094,-180.13400268554688 -140.33299255371094,-180.13400268554688 M-300.4519958496094,-20.014999389648438 C-300.4519958496094,-20.014999389648438 19.785999298095703,-20.014999389648438 19.785999298095703,-20.014999389648438 M-253.5540008544922,-133.23599243164062 C-253.5540008544922,-133.23599243164062 -27.11199951171875,93.20600128173828 -27.11199951171875,93.20600128173828 M-253.5540008544922,93.20600128173828 C-253.5540008544922,93.20600128173828 -27.11199951171875,-133.23599243164062 -27.11199951171875,-133.23599243164062 M-140.33299255371094,-140.10400390625 C-140.33299255371094,-140.10400390625 -180.36300659179688,-180.13400268554688 -180.36300659179688,-180.13400268554688 M-140.33299255371094,-140.10400390625 C-140.33299255371094,-140.10400390625 -100.3030014038086,-180.13400268554688 -100.3030014038086,-180.13400268554688 M-55.63100051879883,-104.71700286865234 C-55.63100051879883,-104.71700286865234 -55.63100051879883,-161.3280029296875 -55.63100051879883,-161.3280029296875 M-55.63100051879883,-104.71700286865234 C-55.63100051879883,-104.71700286865234 0.9800000190734863,-104.71700286865234 0.9800000190734863,-104.71700286865234 M-225.03500366210938,-104.71700286865234 C-225.03500366210938,-104.71700286865234 -225.03500366210938,-161.3280029296875 -225.03500366210938,-161.3280029296875 M-225.03500366210938,-104.71700286865234 C-225.03500366210938,-104.71700286865234 -281.64599609375,-104.71700286865234 -281.64599609375,-104.71700286865234 M-225.03500366210938,64.69000244140625 C-225.03500366210938,64.69000244140625 -225.03500366210938,121.3010025024414 -225.03500366210938,121.3010025024414 M-225.03500366210938,64.69000244140625 C-225.03500366210938,64.69000244140625 -281.64599609375,64.69000244140625 -281.64599609375,64.69000244140625 M-55.63100051879883,64.69000244140625 C-55.63100051879883,64.69000244140625 -55.63100051879883,121.3010025024414 -55.63100051879883,121.3010025024414 M-55.63100051879883,64.69000244140625 C-55.63100051879883,64.69000244140625 0.9800000190734863,64.69000244140625 0.9800000190734863,64.69000244140625 M-140.33299255371094,-76.81099700927734 C-140.33299255371094,-76.81099700927734 -180.36300659179688,-116.84100341796875 -180.36300659179688,-116.84100341796875 M-140.33299255371094,-76.81099700927734 C-140.33299255371094,-76.81099700927734 -100.3030014038086,-116.84100341796875 -100.3030014038086,-116.84100341796875 M-83.64099884033203,-20.014999389648438 C-83.64099884033203,-20.014999389648438 -43.611000061035156,-60.04499816894531 -43.611000061035156,-60.04499816894531 M-83.64099884033203,-20.014999389648438 C-83.64099884033203,-20.014999389648438 -43.611000061035156,20.014999389648438 -43.611000061035156,20.014999389648438 M-196.7259979248047,-20.014999389648438 C-196.7259979248047,-20.014999389648438 -236.75599670410156,20.014999389648438 -236.75599670410156,20.014999389648438 M-196.7259979248047,-20.014999389648438 C-196.7259979248047,-20.014999389648438 -236.75599670410156,-60.04499816894531 -236.75599670410156,-60.04499816894531 M-100.3030014038086,-60.04499816894531 C-100.3030014038086,-60.04499816894531 -100.3030014038086,-116.65499877929688 -100.3030014038086,-116.65499877929688 M-100.3030014038086,-60.04499816894531 C-100.3030014038086,-60.04499816894531 -43.69300079345703,-60.04499816894531 -43.69300079345703,-60.04499816894531 M-180.36300659179688,-60.04499816894531 C-180.36300659179688,-60.04499816894531 -236.9739990234375,-60.04499816894531 -236.9739990234375,-60.04499816894531 M-180.36300659179688,-60.04499816894531 C-180.36300659179688,-60.04499816894531 -180.36300659179688,-116.65499877929688 -180.36300659179688,-116.65499877929688 M-140.33299255371094,36.59600067138672 C-140.33299255371094,36.59600067138672 -100.3030014038086,76.6259994506836 -100.3030014038086,76.6259994506836 M-140.33299255371094,36.59600067138672 C-140.33299255371094,36.59600067138672 -180.36300659179688,76.6259994506836 -180.36300659179688,76.6259994506836 M-180.36300659179688,20.014999389648438 C-180.36300659179688,20.014999389648438 -180.36300659179688,76.6259994506836 -180.36300659179688,76.6259994506836 M-180.36300659179688,20.014999389648438 C-180.36300659179688,20.014999389648438 -236.9739990234375,20.014999389648438 -236.9739990234375,20.014999389648438 M-100.3030014038086,20.014999389648438 C-100.3030014038086,20.014999389648438 -43.69300079345703,20.014999389648438 -43.69300079345703,20.014999389648438 M-100.3030014038086,20.014999389648438 C-100.3030014038086,20.014999389648438 -100.3030014038086,76.6259994506836 -100.3030014038086,76.6259994506836 M-140.33299255371094,100.07499694824219 C-140.33299255371094,100.07499694824219 -100.3030014038086,140.10400390625 -100.3030014038086,140.10400390625 M-140.33299255371094,100.07499694824219 C-140.33299255371094,100.07499694824219 -180.36300659179688,140.10400390625 -180.36300659179688,140.10400390625 M-260.4219970703125,-20.014999389648438 C-260.4219970703125,-20.014999389648438 -300.4519958496094,20.014999389648438 -300.4519958496094,20.014999389648438 M-260.4219970703125,-20.014999389648438 C-260.4219970703125,-20.014999389648438 -300.4519958496094,-60.04499816894531 -300.4519958496094,-60.04499816894531 M-20.014999389648438,-20.014999389648438 C-20.014999389648438,-20.014999389648438 20.014999389648438,-60.04499816894531 20.014999389648438,-60.04499816894531 M-20.014999389648438,-20.014999389648438 C-20.014999389648438,-20.014999389648438 20.014999389648438,20.014999389648438 20.014999389648438,20.014999389648438"></path></g></g></g></g></svg>