<svg xmlns="http://www.w3.org/2000/svg" xmlns:xlink="http://www.w3.org/1999/xlink" viewBox="0 0 500 500" width="500" height="500" preserveAspectRatio="xMidYMid meet" style="width: 100%; height: 100%; transform: translate3d(0px, 0px, 0px); content-visibility: visible;"><defs><clipPath id="__lottie_element_2"><rect width="500" height="500" x="0" y="0"></rect></clipPath></defs><g clip-path="url(#__lottie_element_2)"><g transform="matrix(1,0,0,1,734,217)" opacity="1" style="display: block;"><g opacity="1" transform="matrix(1,0,0,1,0,0)"><path stroke-linecap="round" stroke-linejoin="round" fill-opacity="0" stroke="rgb(51,177,201)" stroke-opacity="1" stroke-width="8.427999999999999" d=" M-216,146 C-216,146 -96.74800109863281,146 -27,146 C42.89899826049805,146 84.84200286865234,81.39099884033203 166,64 C292,37 294.07000732421875,146 354,146 C391,146 425,146 454,146 C475.7690124511719,146 483.9989929199219,118 531,118 C578,118 583,146 635,146 C687,146 685,173 730,173 C775,173 817,173 857,173 C894.3150024414062,173 909.4149780273438,146 960.4149780273438,146 C1019.4149780273438,146 1013,146 1064,146 C1138,146 1235,146 1235,146"></path></g></g><g transform="matrix(1,0,0,1,-204.5,-35)" opacity="1" style="display: block;"><g opacity="1" transform="matrix(1,0,0,1,352.5360107421875,337.4169921875)"><path stroke-linecap="round" stroke-linejoin="round" fill-opacity="0" stroke="rgb(51,177,201)" stroke-opacity="1" stroke-width="8.427999999999999" d=" M-50.83300018310547,8.434000015258789 C-50.83300018310547,-18.847999572753906 -28.715999603271484,-40.9640007019043 -1.434000015258789,-40.9640007019043 C25.847999572753906,-40.9640007019043 47.9640007019043,-18.847999572753906 47.9640007019043,8.434000015258789 C47.9640007019043,35.715999603271484 25.847999572753906,57.83300018310547 -1.434000015258789,57.83300018310547 C-28.715999603271484,57.83300018310547 -50.83300018310547,35.715999603271484 -50.83300018310547,8.434000015258789z"></path></g><g opacity="1" transform="matrix(1,0,0,1,352.5360107421875,337.4169921875)"><path stroke-linecap="round" stroke-linejoin="round" fill-opacity="0" stroke="rgb(51,177,201)" stroke-opacity="1" stroke-width="8.427999999999999" d=" M-18.249000549316406,8.434000015258789 C-18.249000549316406,17.72100067138672 -10.720999717712402,25.249000549316406 -1.434000015258789,25.249000549316406 C7.853000164031982,25.249000549316406 15.380999565124512,17.72100067138672 15.380999565124512,8.434000015258789 C15.380999565124512,-0.8529999852180481 7.853000164031982,-8.380999565124512 -1.434000015258789,-8.380999565124512 C-10.720999717712402,-8.380999565124512 -18.249000549316406,-0.8529999852180481 -18.249000549316406,8.434000015258789z"></path></g></g><g transform="matrix(1,0,0,1,7.9999847412109375,-35)" opacity="1" style="display: block;"><g opacity="1" transform="matrix(1,0,0,1,352.5360107421875,337.4169921875)"><path stroke-linecap="round" stroke-linejoin="round" fill-opacity="0" stroke="rgb(51,177,201)" stroke-opacity="1" stroke-width="8.427999999999999" d=" M-50.83300018310547,8.434000015258789 C-50.83300018310547,-18.847999572753906 -28.715999603271484,-40.9640007019043 -1.434000015258789,-40.9640007019043 C25.847999572753906,-40.9640007019043 47.9640007019043,-18.847999572753906 47.9640007019043,8.434000015258789 C47.9640007019043,35.715999603271484 25.847999572753906,57.83300018310547 -1.434000015258789,57.83300018310547 C-28.715999603271484,57.83300018310547 -50.83300018310547,35.715999603271484 -50.83300018310547,8.434000015258789z"></path></g><g opacity="1" transform="matrix(1,0,0,1,352.5360107421875,337.4169921875)"><path stroke-linecap="round" stroke-linejoin="round" fill-opacity="0" stroke="rgb(51,177,201)" stroke-opacity="1" stroke-width="8.427999999999999" d=" M-18.249000549316406,8.434000015258789 C-18.249000549316406,17.72100067138672 -10.720999717712402,25.249000549316406 -1.434000015258789,25.249000549316406 C7.853000164031982,25.249000549316406 15.380999565124512,17.72100067138672 15.380999565124512,8.434000015258789 C15.380999565124512,-0.8529999852180481 7.853000164031982,-8.380999565124512 -1.434000015258789,-8.380999565124512 C-10.720999717712402,-8.380999565124512 -18.249000549316406,-0.8529999852180481 -18.249000549316406,8.434000015258789z"></path></g></g><g transform="matrix(1,0,0,1,276.5610046386719,145.61099243164062)" opacity="1" style="display: block;"><g opacity="1" transform="matrix(1,0,0,1,0,0)"><path stroke-linecap="round" stroke-linejoin="round" fill-opacity="0" stroke="rgb(51,177,201)" stroke-opacity="1" stroke-width="8.427999999999999" d=" M26.483999252319336,12.055000305175781 C26.483999252319336,12.055000305175781 9.550999641418457,-12.055000305175781 9.550999641418457,-12.055000305175781 C9.550999641418457,-12.055000305175781 -26.483999252319336,-12.055000305175781 -26.483999252319336,-12.055000305175781"></path></g></g><g transform="matrix(1,0,0,1,0,23)" opacity="1" style="display: block;"><g opacity="1" transform="matrix(1,0,0,1,0,-23)"><g opacity="1" transform="matrix(1,0,0,1,370.5299987792969,214.45799255371094)"><path stroke-linecap="round" stroke-linejoin="round" fill-opacity="0" stroke="rgb(51,177,201)" stroke-opacity="1" stroke-width="8.427999999999999" d=" M15.711000442504883,0 C15.711000442504883,0 -15.711000442504883,0 -15.711000442504883,0"></path></g><g opacity="1" transform="matrix(1,0,0,1,104.87000274658203,217.06700134277344)"><path stroke-linecap="round" stroke-linejoin="round" fill-opacity="0" stroke="rgb(51,177,201)" stroke-opacity="1" stroke-width="8.427999999999999" d=" M15.230999946594238,-11.708999633789062 C15.230999946594238,-11.708999633789062 -15.230999946594238,-11.708999633789062 -15.230999946594238,-11.708999633789062 C-15.230999946594238,-11.708999633789062 -15.230999946594238,11.708999633789062 -15.230999946594238,11.708999633789062 C-15.230999946594238,11.708999633789062 1.5089999437332153,11.708999633789062 1.5089999437332153,11.708999633789062"></path></g><g opacity="1" transform="matrix(1,0,0,1,235.3070068359375,207.3179931640625)"><path stroke-linecap="round" stroke-linejoin="round" fill-opacity="0" stroke="rgb(51,177,201)" stroke-opacity="1" stroke-width="8.427999999999999" d=" M41.512001037597656,0 C41.512001037597656,0 -41.512001037597656,0 -41.512001037597656,0"></path></g><g opacity="1" transform="matrix(1,0,0,1,254.0019989013672,255.552001953125)"><path stroke-linecap="round" stroke-linejoin="round" fill-opacity="0" stroke="rgb(51,177,201)" stroke-opacity="1" stroke-width="8.427999999999999" d=" M-151.03500366210938,-4.818999767303467 C-138.51400756835938,-14.274999618530273 -122.91799926757812,-19.867000579833984 -106.0250015258789,-19.867000579833984 C-64.69499969482422,-19.867000579833984 -31.187000274658203,13.630999565124512 -31.187000274658203,54.96099853515625 C-31.187000274658203,54.96099853515625 -31.187000274658203,54.96099853515625 -31.187000274658203,54.96099853515625 C-31.2549991607666,57.59400177001953 -29.139999389648438,59.76599884033203 -26.506000518798828,59.76599884033203 C-26.506000518798828,59.76599884033203 25.937999725341797,59.76599884033203 25.937999725341797,59.76599884033203 C28.56800079345703,59.76599884033203 30.674999237060547,57.5890007019043 30.590999603271484,54.96099853515625 C30.590999603271484,54.96099853515625 30.590999603271484,54.96099853515625 30.590999603271484,54.96099853515625 C30.590999603271484,13.630999565124512 64.0999984741211,-19.867000579833984 105.41999816894531,-19.867000579833984 C122.59200286865234,-19.867000579833984 138.4080047607422,-14.092000007629395 151.03500366210938,-4.357999801635742 C151.03500366210938,-4.357999801635742 133.47900390625,-38.8650016784668 133.47900390625,-38.8650016784668 C126.85800170898438,-51.702999114990234 113.6259994506836,-59.76599884033203 99.18299865722656,-59.76599884033203 C99.18299865722656,-59.76599884033203 22.816999435424805,-59.76599884033203 22.816999435424805,-59.76599884033203 C22.816999435424805,-59.76599884033203 22.816999435424805,-41.66699981689453 22.816999435424805,-41.66699981689453 C22.816999435424805,-32.555999755859375 15.432000160217285,-25.17099952697754 6.321000099182129,-25.17099952697754 C6.321000099182129,-25.17099952697754 -41.7859992980957,-25.17099952697754 -41.7859992980957,-25.17099952697754 C-52.077999114990234,-25.17099952697754 -60.37099838256836,-33.5880012512207 -60.20800018310547,-43.880001068115234 C-60.20800018310547,-43.880001068115234 -60.220001220703125,-59.76599884033203 -60.220001220703125,-59.76599884033203 C-60.220001220703125,-59.76599884033203 -108.01000213623047,-59.654998779296875 -108.01000213623047,-59.654998779296875 C-127.91799926757812,-59.60900115966797 -144.8280029296875,-45.071998596191406 -147.86199951171875,-25.39699935913086 C-147.86199951171875,-25.39699935913086 -151.03500366210938,-4.818999767303467 -151.03500366210938,-4.818999767303467"></path></g><g opacity="1" transform="matrix(1,0,0,1,314.85699462890625,170.32000732421875)"><path stroke-linecap="round" stroke-linejoin="round" fill-opacity="0" stroke="rgb(51,177,201)" stroke-opacity="1" stroke-width="8.427999999999999" d=" M-38.040000915527344,25.465999603271484 C-38.040000915527344,25.465999603271484 -38.040000915527344,3.7730000019073486 -38.040000915527344,3.7730000019073486 C-38.040000915527344,3.7730000019073486 9.690999984741211,-25.465999603271484 9.690999984741211,-25.465999603271484 C9.690999984741211,-25.465999603271484 31.312000274658203,-16.034000396728516 31.312000274658203,-16.034000396728516 C31.312000274658203,-16.034000396728516 38.040000915527344,25.465999603271484 38.040000915527344,25.465999603271484"></path></g><g opacity="1" transform="matrix(1,0,0,1,253.70399475097656,288.0559997558594)"><path stroke-linecap="round" stroke-linejoin="round" fill-opacity="0" stroke="rgb(51,177,201)" stroke-opacity="1" stroke-width="8.427999999999999" d=" M34.31999969482422,0 C34.31999969482422,0 -34.31999969482422,0 -34.31999969482422,0"></path></g></g></g></g></svg>