<svg xmlns="http://www.w3.org/2000/svg" xmlns:xlink="http://www.w3.org/1999/xlink" viewBox="0 0 500 500" width="500" height="500" preserveAspectRatio="xMidYMid meet" style="width: 100%; height: 100%; transform: translate3d(0px, 0px, 0px); content-visibility: visible;"><defs><clipPath id="__lottie_element_2"><rect width="500" height="500" x="0" y="0"></rect></clipPath><g id="__lottie_element_10"><g transform="matrix(1,0,0,1,0,22)" opacity="1" style="display: block;"><path fill="rgb(255,0,0)" fill-opacity="1" d=" M291.59,264.01 C291.59,264.01 316.07,318.12 316.07,318.12 C316.07,318.12 329.23,355.49 329.23,355.49 C329.23,355.49 338.85,382.82 338.85,382.82 C338.85,382.82 365.38,382.82 365.38,382.82 C365.38,382.82 357.65,355.53 357.65,355.53 C357.65,355.53 344.87,310.4 344.87,310.4 C344.87,310.4 328.42,274.17 328.42,274.17"></path><g opacity="1" transform="matrix(1,0,0,1,327.1080017089844,323.0429992675781)"></g></g></g><g id="__lottie_element_19"><g transform="matrix(1,0,0,1,0,22)" opacity="1" style="display: block;"><path fill="rgb(255,0,0)" fill-opacity="1" d=" M138.55,251.8 C135.67,276.69 151.97,279.94 134.43,300.43 C134.43,300.43 124.55,351.81 124.55,351.81 C124.55,351.81 119.53,378.34 119.53,378.34 C119.53,378.34 142.25,384.7 142.25,384.7 C142.25,384.7 149.65,358.69 149.65,358.69 C149.65,358.69 161.79,314.22 161.79,314.22 C161.79,314.22 204.63,294.03 209.84,267.33"></path><g opacity="1" transform="matrix(1,0,0,1,137.1300048828125,355.0270080566406)"></g></g></g><filter id="__lottie_element_29" filterUnits="objectBoundingBox" x="0%" y="0%" width="100%" height="100%"><feComponentTransfer in="SourceGraphic"><feFuncA type="table" tableValues="1.0 0.0"></feFuncA></feComponentTransfer></filter><mask id="__lottie_element_19_2" mask-type="alpha"><g filter="url(#__lottie_element_29)"><rect width="500" height="500" x="0" y="0" fill="#ffffff" opacity="0"></rect><use xlink:href="#__lottie_element_19"></use></g></mask><filter id="__lottie_element_30" filterUnits="objectBoundingBox" x="0%" y="0%" width="100%" height="100%"><feComponentTransfer in="SourceGraphic"><feFuncA type="table" tableValues="1.0 0.0"></feFuncA></feComponentTransfer></filter><mask id="__lottie_element_10_2" mask-type="alpha"><g filter="url(#__lottie_element_30)"><rect width="500" height="500" x="0" y="0" fill="#ffffff" opacity="0"></rect><use xlink:href="#__lottie_element_10"></use></g></mask></defs><g clip-path="url(#__lottie_element_2)"><g transform="matrix(1,0,0,1,0,22)" opacity="1" style="display: block;"><g opacity="1" transform="matrix(1,0,0,1,306.5090026855469,170.1510009765625)"><path stroke-linecap="round" stroke-linejoin="round" fill-opacity="0" stroke="rgb(51,177,201)" stroke-opacity="1" stroke-width="8.4" d=" M-159.7530059814453,45.125 C-163.24400329589844,35.499000549316406 -171.82000732421875,29.319000244140625 -182.7689971923828,29.041000366210938 C-196.0800018310547,28.702999114990234 -207.26699829101562,39.042999267578125 -208.9409942626953,52.25299835205078 C-217.9029998779297,122.97799682617188 -244.76600646972656,122.72100067138672 -244.76600646972656,122.72100067138672 C-244.76600646972656,122.72100067138672 -229.4770050048828,148.04400634765625 -198.72900390625,124.9469985961914 C-176.6840057373047,108.38800048828125 -179.3489990234375,83.51599884033203 -168.79800415039062,76.427001953125"></path></g><g opacity="1" transform="matrix(1,0,0,1,0,0)"><g opacity="1" transform="matrix(1,0,0,1,289.3590087890625,206.49600219726562)"><path stroke-linecap="round" stroke-linejoin="round" fill-opacity="0" stroke="rgb(51,177,201)" stroke-opacity="1" stroke-width="8.4" d=" M-79.5459976196289,60.83700180053711 C-79.5459976196289,60.83700180053711 -49.0369987487793,82.21399688720703 8.059000015258789,74.0999984741211 M39.0359992980957,67.67500305175781 C54.018001556396484,55.82600021362305 51.59600067138672,31.375999450683594 51.59600067138672,31.375999450683594 C51.59600067138672,31.375999450683594 94.95700073242188,-8.859000205993652 94.95700073242188,-8.859000205993652 C94.95700073242188,-8.859000205993652 127.94300079345703,11.013999938964844 127.94300079345703,11.013999938964844 C134.67100524902344,15.067000389099121 143.3820037841797,13.28600025177002 147.97900390625,6.916999816894531 C147.97900390625,6.916999816894531 147.97900390625,6.916999816894531 147.97900390625,6.916999816894531 C152.6739959716797,0.41200000047683716 151.46299743652344,-8.628999710083008 145.2209930419922,-13.668999671936035 C145.2209930419922,-13.668999671936035 114.51200103759766,-38.4640007019043 114.51200103759766,-38.4640007019043 C114.51200103759766,-38.4640007019043 114.51200103759766,-67.67500305175781 114.51200103759766,-67.67500305175781 C106.69300079345703,-66.9280014038086 100.46199798583984,-61.40599822998047 95.80899810791016,-55.08100128173828 C88.40299987792969,-45.01300048828125 68.48300170898438,-31.159000396728516 40.7859992980957,-20.527999877929688"></path></g><g opacity="1" transform="matrix(1,0,0,1,289.3590087890625,206.49600219726562)"><path stroke-linecap="round" stroke-linejoin="round" fill-opacity="0" stroke="rgb(51,177,201)" stroke-opacity="1" stroke-width="8.4" d=" M-81.94300079345703,-7.861000061035156 C-86.14299774169922,-8.576000213623047 -90.36699676513672,-9.42199993133545 -94.61000061035156,-10.406999588012695 C-94.61000061035156,-10.406999588012695 -143.41099548339844,-18.80900001525879 -150.83599853515625,45.30400085449219"></path></g><g opacity="1" transform="matrix(1,0,0,1,289.3590087890625,206.49600219726562)"><path stroke-linecap="round" stroke-linejoin="round" fill-opacity="0" stroke="rgb(51,177,201)" stroke-opacity="1" stroke-width="8.4" d=" M13.746999740600586,-11.982999801635742 C-0.12099999934434891,-8.48900032043457 -15.184000015258789,-5.999000072479248 -31.055999755859375,-5.086999893188477"></path></g></g></g><g mask="url(#__lottie_element_10_2)" style="display: block;"><g transform="matrix(1,0,0,1,0,22)" opacity="1"><g opacity="1" transform="matrix(1,0,0,1,327.1080017089844,323.0429992675781)"><path stroke-linecap="round" stroke-linejoin="round" fill-opacity="0" stroke="rgb(51,177,201)" stroke-opacity="1" stroke-width="8.4" d=" M-37.5260009765625,31.025999069213867 C-37.5260009765625,31.025999069213867 -59.500999450683594,18.202999114990234 -59.500999450683594,18.202999114990234 M-51.768001556396484,-40.779998779296875 C-51.768001556396484,-40.779998779296875 -46.78900146484375,-11.427000045776367 -46.78900146484375,-11.427000045776367 C-46.78900146484375,-11.427000045776367 -59.472999572753906,18.094999313354492 -59.472999572753906,18.094999313354492 C-59.472999572753906,18.094999313354492 -68.05599975585938,43.540000915527344 -68.05599975585938,43.540000915527344 C-68.05599975585938,43.540000915527344 -48.534000396728516,55.26499938964844 -48.534000396728516,55.26499938964844 C-48.534000396728516,55.26499938964844 -37.505001068115234,30.952999114990234 -37.505001068115234,30.952999114990234 C-37.505001068115234,30.952999114990234 -15.484999656677246,-9.645999908447266 -15.484999656677246,-9.645999908447266 C-15.484999656677246,-9.645999908447266 -5.936999797821045,-33.62200164794922 -5.936999797821045,-33.62200164794922"></path></g></g></g><g transform="matrix(1,0,0,1,0,22)" opacity="1" style="display: block;"><g opacity="1" transform="matrix(1,0,0,1,327.1080017089844,323.0429992675781)"><path stroke-linecap="round" stroke-linejoin="round" fill-opacity="0" stroke="rgb(51,177,201)" stroke-opacity="1" stroke-width="8.4" d=" M30.562000274658203,32.558998107910156 C30.562000274658203,32.558998107910156 2.1519999504089355,32.558998107910156 2.1519999504089355,32.558998107910156 M-35.518001556396484,-59.029998779296875 C-35.518001556396484,-59.029998779296875 -11.038999557495117,-4.927000045776367 -11.038999557495117,-4.927000045776367 C-11.038999557495117,-4.927000045776367 2.117000102996826,32.45199966430664 2.117000102996826,32.45199966430664 C2.117000102996826,32.45199966430664 11.737000465393066,59.779998779296875 11.737000465393066,59.779998779296875 C11.737000465393066,59.779998779296875 38.268001556396484,59.779998779296875 38.268001556396484,59.779998779296875 C38.268001556396484,59.779998779296875 30.541000366210938,32.486000061035156 30.541000366210938,32.486000061035156 C30.541000366210938,32.486000061035156 17.763999938964844,-12.645999908447266 17.763999938964844,-12.645999908447266 C17.763999938964844,-12.645999908447266 1.312999963760376,-48.87200164794922 1.312999963760376,-48.87200164794922"></path></g></g><g mask="url(#__lottie_element_19_2)" style="display: block;"><g transform="matrix(1,0,0,1,0,22)" opacity="1"><g opacity="1" transform="matrix(1,0,0,1,202.6719970703125,348.11199951171875)"><path stroke-linecap="round" stroke-linejoin="round" fill-opacity="0" stroke="rgb(51,177,201)" stroke-opacity="1" stroke-width="8.4" d=" M7.168000221252441,-80.77899932861328 C7.168000221252441,-80.77899932861328 -1.3650000095367432,-36.34000015258789 -1.3650000095367432,-36.34000015258789 C-1.3650000095367432,-36.34000015258789 11.241999626159668,-5.775000095367432 11.241999626159668,-5.775000095367432 C11.241999626159668,-5.775000095367432 21.32900047302246,18.67799949645996 21.32900047302246,18.67799949645996 C21.32900047302246,18.67799949645996 0.22699999809265137,29.555999755859375 0.22699999809265137,29.555999755859375 C0.22699999809265137,29.555999755859375 -11.284000396728516,5.691999912261963 -11.284000396728516,5.691999912261963 C-11.284000396728516,5.691999912261963 -31.173999786376953,-35.54499816894531 -31.173999786376953,-35.54499816894531 C-31.173999786376953,-35.54499816894531 -31.173999786376953,-39.16400146484375 -31.173999786376953,-39.16400146484375 M-11.236000061035156,5.791999816894531 C-11.236000061035156,5.791999816894531 11.236000061035156,-5.791999816894531 11.236000061035156,-5.791999816894531"></path></g></g></g><g transform="matrix(1,0,0,1,0,22)" opacity="1" style="display: block;"><g opacity="1" transform="matrix(1,0,0,1,137.1300048828125,355.0270080566406)"><path stroke-linecap="round" stroke-linejoin="round" fill-opacity="0" stroke="rgb(51,177,201)" stroke-opacity="1" stroke-width="8.4" d=" M1.4190000295639038,-103.22699737548828 C-1.4630000591278076,-78.33999633789062 14.843000411987305,-75.08499908447266 -2.697000026702881,-54.59600067138672 C-2.697000026702881,-54.59600067138672 -12.585000038146973,-3.2209999561309814 -12.585000038146973,-3.2209999561309814 C-12.585000038146973,-3.2209999561309814 -17.604999542236328,23.315000534057617 -17.604999542236328,23.315000534057617 C-17.604999542236328,23.315000534057617 5.124000072479248,29.677000045776367 5.124000072479248,29.677000045776367 C5.124000072479248,29.677000045776367 12.515999794006348,3.6670000553131104 12.515999794006348,3.6670000553131104 C12.515999794006348,3.6670000553131104 24.658000946044922,-40.81100082397461 24.658000946044922,-40.81100082397461 C24.658000946044922,-40.81100082397461 67.49700164794922,-60.99700164794922 72.70899963378906,-87.69400024414062 M12.479999542236328,3.494999885559082 C12.479999542236328,3.494999885559082 -12.479999542236328,-3.494999885559082 -12.479999542236328,-3.494999885559082"></path></g></g><g transform="matrix(1,0,0,1,0,0)" opacity="1" style="display: block;"><g opacity="1" transform="matrix(1,0,0,1,237.64500427246094,244.88600158691406)"><path stroke-linecap="round" stroke-linejoin="round" fill-opacity="0" stroke="rgb(51,177,201)" stroke-opacity="1" stroke-width="8.4" d=" M47.12099838256836,-107.78199768066406 C47.12099838256836,-107.78199768066406 55.13199996948242,-99.99700164794922 55.13199996948242,-99.99700164794922 C56.88199996948242,-98.2959976196289 59.70600128173828,-98.33699798583984 61.40700149536133,-100.08699798583984 C61.40700149536133,-100.08699798583984 74.68900299072266,-113.75499725341797 74.68900299072266,-113.75499725341797 C80.3759994506836,-119.60800170898438 80.24099731445312,-129.0489959716797 74.38800048828125,-134.73599243164062 C74.38800048828125,-134.73599243164062 73.83499908447266,-135.2729949951172 73.83499908447266,-135.2729949951172 C67.98200225830078,-140.9600067138672 58.54100036621094,-140.8249969482422 52.854000091552734,-134.9720001220703 C52.854000091552734,-134.9720001220703 46.81999969482422,-128.76300048828125 46.81999969482422,-128.76300048828125 C41.132999420166016,-122.91000366210938 41.268001556396484,-113.46900177001953 47.12099838256836,-107.78199768066406z M1.3739999532699585,-34.29999923706055 C1.3739999532699585,-34.29999923706055 27.65999984741211,-12.005999565124512 27.65999984741211,-12.005999565124512 C34.27199935913086,-8.10099983215332 36.71099853515625,0.27000001072883606 33.231998443603516,7.116000175476074 C33.231998443603516,7.116000175476074 20.742000579833984,43.487998962402344 20.742000579833984,43.487998962402344 C20.742000579833984,43.487998962402344 32.43000030517578,59.69499969482422 24.749000549316406,65.62000274658203 C24.749000549316406,65.62000274658203 -7.9029998779296875,49.12799835205078 -7.9029998779296875,49.12799835205078 C-7.9029998779296875,49.12799835205078 5.913000106811523,4.796000003814697 5.913000106811523,4.796000003814697 C5.913000106811523,4.796000003814697 -26.347000122070312,-23.610000610351562 -26.347000122070312,-23.610000610351562 C-27.437999725341797,-24.886999130249023 -38.1619987487793,-37.854000091552734 -33.757999420166016,-52.99300003051758 C-31.965999603271484,-59.1510009765625 -28.35300064086914,-63.32699966430664 -25.959999084472656,-65.62000274658203"></path></g><g opacity="1" transform="matrix(1,0,0,1,293.47198486328125,185.7259979248047)"><path stroke-linecap="round" stroke-linejoin="round" fill-opacity="0" stroke="rgb(51,177,201)" stroke-opacity="1" stroke-width="8.4" d=" M-21.341999053955078,-3.9800000190734863 C-21.341999053955078,-3.9800000190734863 -54.551998138427734,24.889999389648438 -54.551998138427734,24.889999389648438 C-54.551998138427734,24.889999389648438 -81.802001953125,-6.440000057220459 -81.802001953125,-6.440000057220459 C-81.802001953125,-6.440000057220459 -81.81199645996094,-6.449999809265137 -81.81199645996094,-6.449999809265137 C-81.81199645996094,-6.449999809265137 -44.731998443603516,-38.70000076293945 -44.731998443603516,-38.70000076293945 C-39.53200149536133,-42.7599983215332 -35.0620002746582,-43.41999816894531 -34.832000732421875,-43.459999084472656 C-27.86199951171875,-44.720001220703125 -20.422000885009766,-42.38999938964844 -15.432000160217285,-36.650001525878906 C-14.381999969482422,-35.439998626708984 -13.501999855041504,-34.150001525878906 -12.781999588012695,-32.79999923706055 C-12.781999588012695,-32.79999923706055 -12.652000427246094,-32.54999923706055 -12.652000427246094,-32.54999923706055 M-13.027000427246094,-33.2869987487793 C-13.027000427246094,-33.2869987487793 2.5869998931884766,-3.265000104904175 2.5869998931884766,-3.265000104904175 C2.5869998931884766,-3.265000104904175 33.992000579833984,22.038999557495117 33.992000579833984,22.038999557495117 C33.992000579833984,22.038999557495117 28.864999771118164,37.303001403808594 14.199999809265137,32.268001556396484 C14.199999809265137,32.268001556396484 -13.645999908447266,9.789999961853027 -13.645999908447266,9.789999961853027 C-13.645999908447266,9.789999961853027 -33.992000579833984,-26.60099983215332 -33.992000579833984,-26.60099983215332"></path></g></g></g></svg>