<svg xmlns="http://www.w3.org/2000/svg" xmlns:xlink="http://www.w3.org/1999/xlink" viewBox="0 0 500 500" width="500" height="500" preserveAspectRatio="xMidYMid meet" style="width: 100%; height: 100%; transform: translate3d(0px, 0px, 0px); content-visibility: visible;"><defs><clipPath id="__lottie_element_2"><rect width="500" height="500" x="0" y="0"></rect></clipPath><clipPath id="__lottie_element_6"><path d="M0,0 L500,0 L500,500 L0,500z"></path></clipPath><g id="__lottie_element_9"><g transform="matrix(1,0,0,1,0,0)" opacity="1" style="display: block;"><g opacity="1" transform="matrix(1,0,0,1,216.63299560546875,290.0299987792969)"><path fill="rgb(255,0,0)" fill-opacity="1" d=" M20.757999420166016,0.11299999803304672 C20.757999420166016,0.11299999803304672 21.66900062561035,-0.15700000524520874 34.82899856567383,0.0020000000949949026 C57.027000427246094,0.27000001072883606 101.427001953125,0.0020000000949949026 101.427001953125,0.0020000000949949026 C108.05699920654297,0.0020000000949949026 113.427001953125,-5.368000030517578 113.427001953125,-11.998000144958496 C113.427001953125,-11.998000144958496 113.427001953125,-28.027999877929688 113.427001953125,-28.027999877929688 C113.427001953125,-34.65800094604492 108.05699920654297,-40.02799987792969 101.427001953125,-40.02799987792969 C101.427001953125,-40.02799987792969 56.37900161743164,-39.895999908447266 33.85499954223633,-40.02799987792969 C2.6610000133514404,-40.209999084472656 -34.69300079345703,-40.02799987792969 -34.69300079345703,-40.02799987792969 C-41.323001861572266,-40.02799987792969 -46.69300079345703,-34.65800094604492 -46.69300079345703,-28.027999877929688 C-46.69300079345703,-28.027999877929688 -46.69300079345703,-11.998000144958496 -46.69300079345703,-11.998000144958496 C-46.69300079345703,-5.368000030517578 -41.323001861572266,0.0020000000949949026 -34.69300079345703,0.0020000000949949026 C-34.69300079345703,0.0020000000949949026 -20.753999710083008,0.11299999803304672 -20.753999710083008,0.11299999803304672 M-20.02400016784668,-40.029998779296875 C-20.02400016784668,-40.029998779296875 -20.246999740600586,6.085000038146973 -20.02400016784668,40.029998779296875 C-11.473999977111816,40.15599822998047 9.484999656677246,40.41600036621094 20.02400016784668,40.029998779296875 C19.719999313354492,19.608999252319336 20.02400016784668,-40.029998779296875 20.02400016784668,-40.029998779296875"></path></g></g></g><filter id="__lottie_element_16" filterUnits="objectBoundingBox" x="0%" y="0%" width="100%" height="100%"><feComponentTransfer in="SourceGraphic"><feFuncA type="table" tableValues="1.0 0.0"></feFuncA></feComponentTransfer></filter><mask id="__lottie_element_9_2" mask-type="alpha"><g filter="url(#__lottie_element_16)"><rect width="500" height="500" x="0" y="0" fill="#ffffff" opacity="0"></rect><use xlink:href="#__lottie_element_9"></use></g></mask><g id="__lottie_element_20"><g transform="matrix(1,0,0,1,0,0)" opacity="1" style="display: block;"><g opacity="1" transform="matrix(1,0,0,1,250,149.92599487304688)"><path fill="rgb(255,0,0)" fill-opacity="1" d=" M-47.540000915527344,-20.014999389648438 C-47.540000915527344,-20.014999389648438 -53.369998931884766,-86.73500061035156 -53.369998931884766,-86.73500061035156 C-53.369998931884766,-86.73500061035156 53.369998931884766,-86.73500061035156 53.369998931884766,-86.73500061035156 C53.369998931884766,-86.73500061035156 47.540000915527344,-20.014999389648438 47.540000915527344,-20.014999389648438 M-66.72000122070312,20.014999389648438 C-66.72000122070312,20.014999389648438 -66.72000122070312,-20.014999389648438 -66.72000122070312,-20.014999389648438 C-66.72000122070312,-20.014999389648438 66.72000122070312,-20.014999389648438 66.72000122070312,-20.014999389648438 C66.72000122070312,-20.014999389648438 66.72000122070312,20.014999389648438 66.72000122070312,20.014999389648438 C66.72000122070312,20.014999389648438 -66.72000122070312,20.014999389648438 -66.72000122070312,20.014999389648438z"></path></g></g></g><filter id="__lottie_element_38" filterUnits="objectBoundingBox" x="0%" y="0%" width="100%" height="100%"><feComponentTransfer in="SourceGraphic"><feFuncA type="table" tableValues="1.0 0.0"></feFuncA></feComponentTransfer></filter><mask id="__lottie_element_20_2" mask-type="alpha"><g filter="url(#__lottie_element_38)"><rect width="500" height="500" x="0" y="0" fill="#ffffff" opacity="0"></rect><use xlink:href="#__lottie_element_20"></use></g></mask></defs><g clip-path="url(#__lottie_element_2)"><g mask="url(#__lottie_element_9_2)" style="display: block;"><g clip-path="url(#__lottie_element_6)" transform="matrix(1,0,0,1,0,0)" opacity="1"><g mask="url(#__lottie_element_20_2)" style="display: block;"><g transform="matrix(1,0,0,1,0,0)" opacity="1"><g opacity="1" transform="matrix(1,0,0,1,249.83999633789062,209.94500732421875)"><path stroke-linecap="round" stroke-linejoin="round" fill-opacity="0" stroke="rgb(51,177,201)" stroke-opacity="1" stroke-width="8.4" d=" M0,-66.51349639892578 C36.708797454833984,-66.51349639892578 66.51349639892578,-36.708797454833984 66.51349639892578,0 C66.51349639892578,36.708797454833984 36.708797454833984,66.51349639892578 0,66.51349639892578 C-36.708797454833984,66.51349639892578 -66.51349639892578,36.708797454833984 -66.51349639892578,0 C-66.51349639892578,-36.708797454833984 -36.708797454833984,-66.51349639892578 0,-66.51349639892578z"></path></g></g></g><g transform="matrix(1,0,0,1,0,0)" opacity="1" style="display: block;"><g opacity="1" transform="matrix(1,0,0,1,0,0)"><g opacity="1" transform="matrix(1,0,0,1,250,96.5510025024414)"><path stroke-linecap="round" stroke-linejoin="round" fill-opacity="0" stroke="rgb(51,177,201)" stroke-opacity="1" stroke-width="8.4" d=" M-47.540000915527344,33.36000061035156 C-47.540000915527344,33.36000061035156 -53.369998931884766,-33.36000061035156 -53.369998931884766,-33.36000061035156 C-53.369998931884766,-33.36000061035156 53.369998931884766,-33.36000061035156 53.369998931884766,-33.36000061035156 C53.369998931884766,-33.36000061035156 47.540000915527344,33.36000061035156 47.540000915527344,33.36000061035156"></path></g><g opacity="1" transform="matrix(1,0,0,1,250,149.92599487304688)"><path stroke-linecap="round" stroke-linejoin="round" fill-opacity="0" stroke="rgb(51,177,201)" stroke-opacity="1" stroke-width="8.4" d=" M-66.72000122070312,20.014999389648438 C-66.72000122070312,20.014999389648438 -66.72000122070312,-20.014999389648438 -66.72000122070312,-20.014999389648438 C-66.72000122070312,-20.014999389648438 66.72000122070312,-20.014999389648438 66.72000122070312,-20.014999389648438 C66.72000122070312,-20.014999389648438 66.72000122070312,20.014999389648438 66.72000122070312,20.014999389648438 C66.72000122070312,20.014999389648438 -66.72000122070312,20.014999389648438 -66.72000122070312,20.014999389648438z"></path></g></g></g><g transform="matrix(1,0,0,1,0,0)" opacity="1" style="display: block;"><g opacity="1" transform="matrix(1,0,0,1,0,0)"><g opacity="1" transform="matrix(1,0,0,1,271.68701171875,196.6269989013672)"><path stroke-linecap="round" stroke-linejoin="round" fill-opacity="0" stroke="rgb(51,177,201)" stroke-opacity="1" stroke-width="10.5" d=" M0,0 C0,0 0,0 0,0"></path></g><g opacity="1" transform="matrix(1,0,0,1,228.31300354003906,196.6269989013672)"><path stroke-linecap="round" stroke-linejoin="round" fill-opacity="0" stroke="rgb(51,177,201)" stroke-opacity="1" stroke-width="10.5" d=" M0,0 C0,0 0,0 0,0"></path></g></g><g opacity="1" transform="matrix(1,0,0,1,236.83799743652344,223.31300354003906)"><path stroke-linecap="round" stroke-linejoin="round" fill-opacity="0" stroke="rgb(51,177,201)" stroke-opacity="1" stroke-width="8.4" d=" M13.52400016784668,0 C13.52400016784668,0 4.448999881744385,0 -0.08799999952316284,0 C-4.566999912261963,0 -13.52400016784668,0 -13.52400016784668,0"></path></g></g><g transform="matrix(1,0,0,1,0,0)" opacity="1" style="display: block;"><g opacity="1" transform="matrix(1,0,0,1,250,343.40301513671875)"><path stroke-linecap="round" stroke-linejoin="round" fill-opacity="0" stroke="rgb(51,177,201)" stroke-opacity="1" stroke-width="8.4" d=" M-43.63600158691406,-82.60399627685547 C-73.23600006103516,-66.93499755859375 -93.40299987792969,-35.823001861572266 -93.40299987792969,0 C-93.40299987792969,51.584999084472656 -51.584999084472656,93.40299987792969 0,93.40299987792969 C51.584999084472656,93.40299987792969 93.40299987792969,51.584999084472656 93.40299987792969,0 C93.40299987792969,-36.310001373291016 72.68499755859375,-67.77999877929688 42.42499923706055,-83.23400115966797"></path></g><g opacity="1" transform="matrix(1,0,0,1,250,383.53399658203125)"><path stroke-linecap="round" stroke-linejoin="round" fill-opacity="0" stroke="rgb(51,177,201)" stroke-opacity="1" stroke-width="12.599999999999998" d=" M0,0 C0,0 0,0 0,0"></path></g><g opacity="1" transform="matrix(1,0,0,1,250,343.40301513671875)"><path stroke-linecap="round" stroke-linejoin="round" fill-opacity="0" stroke="rgb(51,177,201)" stroke-opacity="1" stroke-width="12.599999999999998" d=" M0,0 C0,0 0,0 0,0"></path></g></g><g transform="matrix(1,0,0,1,0,0)" opacity="1" style="display: block;"><g opacity="1" transform="matrix(1,0,0,1,0,0)"><g opacity="1" transform="matrix(1,0,0,1,336.72698974609375,250.0240020751953)"><path stroke-linecap="round" stroke-linejoin="round" fill-opacity="0" stroke="rgb(51,177,201)" stroke-opacity="1" stroke-width="8.4" d=" M20.003000259399414,-40.00600051879883 C20.003000259399414,-40.00600051879883 20.003000259399414,0 20.003000259399414,0 C20.003000259399414,0 -13.501999855041504,33.507999420166016 -13.501999855041504,33.507999420166016"></path></g><g opacity="1" transform="matrix(1,0,0,1,376.7330017089844,250.0240020751953)"><path stroke-linecap="round" stroke-linejoin="round" fill-opacity="0" stroke="rgb(51,177,201)" stroke-opacity="1" stroke-width="8.4" d=" M20.003000259399414,0 C20.003000259399414,0 -20.003000259399414,0 -20.003000259399414,0"></path></g></g></g><g transform="matrix(1,0,0,1,0,0)" opacity="1" style="display: block;"><g opacity="1" transform="matrix(1,0,0,1,0,0)"><g opacity="1" transform="matrix(1,0,0,1,163.2830047607422,250.04299926757812)"><path stroke-linecap="round" stroke-linejoin="round" fill-opacity="0" stroke="rgb(51,177,201)" stroke-opacity="1" stroke-width="8.4" d=" M-19.993000030517578,-39.986000061035156 C-19.993000030517578,-39.986000061035156 -19.993000030517578,0 -19.993000030517578,0 C-19.993000030517578,0 13.496999740600586,33.483001708984375 13.496999740600586,33.483001708984375"></path></g><g opacity="1" transform="matrix(1,0,0,1,123.2969970703125,250.04299926757812)"><path stroke-linecap="round" stroke-linejoin="round" fill-opacity="0" stroke="rgb(51,177,201)" stroke-opacity="1" stroke-width="8.4" d=" M-19.993000030517578,0 C-19.993000030517578,0 19.993000030517578,0 19.993000030517578,0"></path></g></g></g></g></g><g transform="matrix(1,0,0,1,0,0)" opacity="1" style="display: block;"><g opacity="1" transform="matrix(1,0,0,1,250,270.0159912109375)"><path stroke-linecap="round" stroke-linejoin="round" fill-opacity="0" stroke="rgb(51,177,201)" stroke-opacity="1" stroke-width="8.4" d=" M-12.609000205993652,20.125999450683594 C-12.609000205993652,20.125999450683594 -11.697999954223633,19.856000900268555 1.4620000123977661,20.014999389648438 C23.65999984741211,20.283000946044922 68.05999755859375,20.014999389648438 68.05999755859375,20.014999389648438 C74.69000244140625,20.014999389648438 80.05999755859375,14.645000457763672 80.05999755859375,8.015000343322754 C80.05999755859375,8.015000343322754 80.05999755859375,-8.015000343322754 80.05999755859375,-8.015000343322754 C80.05999755859375,-14.645000457763672 74.69000244140625,-20.014999389648438 68.05999755859375,-20.014999389648438 C68.05999755859375,-20.014999389648438 23.01099967956543,-19.882999420166016 0.4869999885559082,-20.014999389648438 C-30.707000732421875,-20.19700050354004 -68.05999755859375,-20.014999389648438 -68.05999755859375,-20.014999389648438 C-74.69000244140625,-20.014999389648438 -80.05999755859375,-14.645000457763672 -80.05999755859375,-8.015000343322754 C-80.05999755859375,-8.015000343322754 -80.05999755859375,8.015000343322754 -80.05999755859375,8.015000343322754 C-80.05999755859375,14.645000457763672 -74.69000244140625,20.014999389648438 -68.05999755859375,20.014999389648438 C-68.05999755859375,20.014999389648438 -54.12099838256836,20.125999450683594 -54.12099838256836,20.125999450683594"></path></g><g opacity="1" transform="matrix(1,0,0,1,216.63299560546875,290.0299987792969)"><path stroke-linecap="round" stroke-linejoin="round" fill-opacity="0" stroke="rgb(51,177,201)" stroke-opacity="1" stroke-width="8.4" d=" M20.02400016784668,-40.029998779296875 C20.02400016784668,-40.029998779296875 19.719999313354492,19.608999252319336 20.02400016784668,40.029998779296875 C9.484999656677246,40.41600036621094 -11.473999977111816,40.15599822998047 -20.02400016784668,40.029998779296875 C-20.246999740600586,6.085000038146973 -20.02400016784668,-40.029998779296875 -20.02400016784668,-40.029998779296875"></path></g></g></g></svg>