<svg xmlns="http://www.w3.org/2000/svg" xmlns:xlink="http://www.w3.org/1999/xlink" viewBox="0 0 500 500" width="500" height="500" preserveAspectRatio="xMidYMid meet" style="width: 100%; height: 100%; transform: translate3d(0px, 0px, 0px); content-visibility: visible;"><defs><clipPath id="__lottie_element_2"><rect width="500" height="500" x="0" y="0"></rect></clipPath></defs><g clip-path="url(#__lottie_element_2)"><g transform="matrix(1,0,0,1,250,250.75599670410156)" opacity="1" style="display: block;"><g opacity="1" transform="matrix(1,0,0,1,0,0)"><path stroke-linecap="round" stroke-linejoin="round" fill-opacity="0" stroke="rgb(51,177,201)" stroke-opacity="1" stroke-width="8.427999999999999" d=" M159.8179931640625,-160.875 C159.8179931640625,-160.875 159.8179931640625,-131.95399475097656 159.8179931640625,-131.95399475097656 C159.8179931640625,-123.20500183105469 152.72500610351562,-116.11199951171875 143.98699951171875,-116.11199951171875 C143.98699951171875,-116.11199951171875 143.98699951171875,-116.11199951171875 143.98699951171875,-116.11199951171875 C138.71099853515625,-116.11199951171875 134.2550048828125,-112.19300079345703 133.58200073242188,-106.95999908447266 C133.58200073242188,-106.95999908447266 121.26200103759766,-11.180999755859375 121.26200103759766,-11.180999755859375 C121.26200103759766,-11.180999755859375 111.86699676513672,74.7979965209961 111.86699676513672,74.7979965209961 C110.89800262451172,82.37999725341797 104.62899780273438,82.37999725341797 103.6500015258789,74.7979965209961 C103.6500015258789,74.7979965209961 94.26599884033203,-11.180999755859375 94.26599884033203,-11.180999755859375 C94.26599884033203,-11.180999755859375 81.88500213623047,-107.43099975585938 81.88500213623047,-107.43099975585938 C81.24600219726562,-112.3949966430664 77.0199966430664,-116.11199951171875 72.01499938964844,-116.11199951171875 C72.01499938964844,-116.11199951171875 72.01499938964844,-116.11199951171875 72.01499938964844,-116.11199951171875 C67.16300201416016,-116.11199951171875 63.01900100708008,-112.61399841308594 62.20500183105469,-107.83100128173828 C62.20500183105469,-107.83100128173828 50.117000579833984,-36.823001861572266 50.117000579833984,-36.823001861572266 C50.117000579833984,-36.823001861572266 40.680999755859375,18.594999313354492 40.680999755859375,18.594999313354492 C39.56700134277344,25.13599967956543 33.6609992980957,25.13599967956543 32.547000885009766,18.594999313354492 C32.547000885009766,18.594999313354492 23.121000289916992,-36.823001861572266 23.121000289916992,-36.823001861572266 C23.121000289916992,-36.823001861572266 10.701000213623047,-109.77999877929688 10.701000213623047,-109.77999877929688 C10.07800006866455,-113.43699645996094 6.909999847412109,-116.11199951171875 3.200000047683716,-116.11199951171875 C3.200000047683716,-116.11199951171875 2.9200000762939453,-116.11199951171875 2.9200000762939453,-116.11199951171875 C-0.9940000176429749,-116.11199951171875 -4.269999980926514,-113.14299774169922 -4.6529998779296875,-109.24700164794922 C-4.6529998779296875,-109.24700164794922 -19.256999969482422,39.40399932861328 -19.256999969482422,39.40399932861328 C-19.256999969482422,39.40399932861328 -30.381000518798828,154.72000122070312 -30.381000518798828,154.72000122070312 C-31.19300079345703,162.927001953125 -37.86899948120117,162.927001953125 -38.680999755859375,154.72000122070312 C-38.680999755859375,154.72000122070312 -49.814998626708984,39.40399932861328 -49.814998626708984,39.40399932861328 C-49.814998626708984,39.40399932861328 -64.41899871826172,-109.24700164794922 -64.41899871826172,-109.24700164794922 C-64.802001953125,-113.14299774169922 -68.0780029296875,-116.11199951171875 -71.99199676513672,-116.11199951171875 C-71.99199676513672,-116.11199951171875 -71.99199676513672,-116.11199951171875 -71.99199676513672,-116.11199951171875 C-75.81900024414062,-116.11199951171875 -79.0510025024414,-113.2699966430664 -79.53900146484375,-109.4739990234375 C-79.53900146484375,-109.4739990234375 -92.18299865722656,-11.180999755859375 -92.18299865722656,-11.180999755859375 C-92.18299865722656,-11.180999755859375 -101.56700134277344,69.7969970703125 -101.56700134277344,69.7969970703125 C-102.5459976196289,77.37899780273438 -108.81500244140625,77.37899780273438 -109.78399658203125,69.7969970703125 C-109.78399658203125,69.7969970703125 -119.17900085449219,-11.180999755859375 -119.17900085449219,-11.180999755859375 C-119.17900085449219,-11.180999755859375 -131.23399353027344,-104.89399719238281 -131.23399353027344,-104.89399719238281 C-132.0590057373047,-111.30899810791016 -137.52000427246094,-116.11199951171875 -143.98699951171875,-116.11199951171875 C-143.98699951171875,-116.11199951171875 -143.98699951171875,-116.11199951171875 -143.98699951171875,-116.11199951171875 C-152.72500610351562,-116.11199951171875 -159.8179931640625,-123.20500183105469 -159.8179931640625,-131.95399475097656 C-159.8179931640625,-131.95399475097656 -159.8179931640625,-160.875 -159.8179931640625,-160.875"></path></g></g><g transform="matrix(1,0,0,1,286.6190185546875,359.239013671875)" opacity="1" style="display: block;"><g opacity="1" transform="matrix(1,0,0,1,0,0)"><path stroke-linecap="round" stroke-linejoin="round" fill-opacity="0" stroke="rgb(51,177,201)" stroke-opacity="1" stroke-width="8.427999999999999" d=" M-13.265999794006348,15.25 C-13.265999794006348,25.391000747680664 -7.359000205993652,33.611000061035156 -0.0729999989271164,33.611000061035156 C7.2129998207092285,33.611000061035156 13.119000434875488,25.391000747680664 13.119000434875488,15.25 C13.119000434875488,5.109000205993652 -0.36899998784065247,-17.617000579833984 -0.36899998784065247,-17.98900032043457 C-0.7379999756813049,-17.98900032043457 -13.265999794006348,5.109000205993652 -13.265999794006348,15.25z"></path></g></g></g></svg>