<svg xmlns="http://www.w3.org/2000/svg" xmlns:xlink="http://www.w3.org/1999/xlink" viewBox="0 0 500 500" width="500" height="500" preserveAspectRatio="xMidYMid meet" style="width: 100%; height: 100%; transform: translate3d(0px, 0px, 0px); content-visibility: visible;"><defs><clipPath id="__lottie_element_2"><rect width="500" height="500" x="0" y="0"></rect></clipPath><g id="__lottie_element_8"><g transform="matrix(1,0,0,1,129.94000244140625,191.07000732421875)" opacity="1" style="display: block;"><g opacity="1" transform="matrix(1,0,0,1,0,0)"><path fill="rgb(255,255,255)" fill-opacity="1" d=" M48.902000427246094,-8.376999855041504 C48.902000427246094,-8.376999855041504 -6.776000022888184,-0.8550000190734863 -6.776000022888184,-0.8550000190734863 C-6.776000022888184,-0.8550000190734863 -31.08799934387207,41.20100021362305 -31.08799934387207,41.20100021362305 C-31.08799934387207,41.20100021362305 -52.930999755859375,37.832000732421875 -48.590999603271484,15.970000267028809 C-48.590999603271484,15.970000267028809 -21.937000274658203,-28.04800033569336 -21.937000274658203,-28.04800033569336 C-21.937000274658203,-28.04800033569336 49.1619987487793,-41.20100021362305 49.1619987487793,-41.20100021362305"></path><path stroke-linecap="round" stroke-linejoin="round" fill-opacity="0" stroke="rgb(8,168,138)" stroke-opacity="1" stroke-width="0" d=" M48.902000427246094,-8.376999855041504 C48.902000427246094,-8.376999855041504 -6.776000022888184,-0.8550000190734863 -6.776000022888184,-0.8550000190734863 C-6.776000022888184,-0.8550000190734863 -31.08799934387207,41.20100021362305 -31.08799934387207,41.20100021362305 C-31.08799934387207,41.20100021362305 -52.930999755859375,37.832000732421875 -48.590999603271484,15.970000267028809 C-48.590999603271484,15.970000267028809 -21.937000274658203,-28.04800033569336 -21.937000274658203,-28.04800033569336 C-21.937000274658203,-28.04800033569336 49.1619987487793,-41.20100021362305 49.1619987487793,-41.20100021362305"></path></g></g></g><g id="__lottie_element_13"><g clip-path="url(#__lottie_element_14)" transform="matrix(1,0,0,1,0,0)" opacity="1" style="display: block;"><g transform="matrix(1,0,0,1,172.80299377441406,202.4429931640625)" opacity="1" style="display: block;"><g opacity="1" transform="matrix(1,0,0,1,0,0)"><path fill="rgb(255,255,255)" fill-opacity="1" d=" M12.28499984741211,53.290000915527344 C12.28499984741211,53.290000915527344 -42.59700012207031,29.719999313354492 -42.59700012207031,29.719999313354492 C-42.59700012207031,29.719999313354492 -14.715999603271484,-35.20199966430664 -14.715999603271484,-35.20199966430664 C-8.206999778747559,-50.356998443603516 9.354999542236328,-57.367000579833984 24.510000228881836,-50.85900115966797 C24.510000228881836,-50.85900115966797 24.510000228881836,-50.85900115966797 24.510000228881836,-50.85900115966797 C39.665000915527344,-44.35100173950195 46.67499923706055,-26.788000106811523 40.16600036621094,-11.633000373840332 C40.16600036621094,-11.633000373840332 12.28499984741211,53.290000915527344 12.28499984741211,53.290000915527344z"></path><path stroke-linecap="round" stroke-linejoin="round" fill-opacity="0" stroke="rgb(8,168,138)" stroke-opacity="1" stroke-width="0" d=" M12.28499984741211,53.290000915527344 C12.28499984741211,53.290000915527344 -42.59700012207031,29.719999313354492 -42.59700012207031,29.719999313354492 C-42.59700012207031,29.719999313354492 -14.715999603271484,-35.20199966430664 -14.715999603271484,-35.20199966430664 C-8.206999778747559,-50.356998443603516 9.354999542236328,-57.367000579833984 24.510000228881836,-50.85900115966797 C24.510000228881836,-50.85900115966797 24.510000228881836,-50.85900115966797 24.510000228881836,-50.85900115966797 C39.665000915527344,-44.35100173950195 46.67499923706055,-26.788000106811523 40.16600036621094,-11.633000373840332 C40.16600036621094,-11.633000373840332 12.28499984741211,53.290000915527344 12.28499984741211,53.290000915527344z"></path></g></g><g transform="matrix(1,0,0,1,185.67799377441406,324.0459899902344)" opacity="1" style="display: block;"><g opacity="1" transform="matrix(1,0,0,1,0,0)"><path stroke-linecap="round" stroke-linejoin="round" fill-opacity="0" stroke="rgb(18,19,49)" stroke-opacity="1" stroke-width="0" d=" M-55.470001220703125,-91.88200378417969 C-55.470001220703125,-91.88200378417969 -0.4000000059604645,8.944999694824219 -0.4000000059604645,8.944999694824219 C-0.4000000059604645,8.944999694824219 0.5239999890327454,91.88200378417969 0.5239999890327454,91.88200378417969 C18.25200080871582,91.88200378417969 35.98099899291992,91.88200378417969 53.70899963378906,91.88200378417969 C62.154998779296875,78.2040023803711 37.55699920654297,65.36100006103516 36.099998474121094,64.99800109863281 C36.67499923706055,43.99800109863281 37.25,22.999000549316406 37.82500076293945,1.9989999532699585 C37.82500076293945,1.9989999532699585 -0.6169999837875366,-68.3270034790039 -0.6169999837875366,-68.3270034790039"></path><path fill="rgb(255,0,0)" fill-opacity="1" d=" M-55.470001220703125,-91.88200378417969 C-55.470001220703125,-91.88200378417969 -0.4000000059604645,8.944999694824219 -0.4000000059604645,8.944999694824219 C-0.4000000059604645,8.944999694824219 0.5239999890327454,91.88200378417969 0.5239999890327454,91.88200378417969 C18.25200080871582,91.88200378417969 35.98099899291992,91.88200378417969 53.70899963378906,91.88200378417969 C62.154998779296875,78.2040023803711 37.55699920654297,65.36100006103516 36.099998474121094,64.99800109863281 C36.67499923706055,43.99800109863281 37.25,22.999000549316406 37.82500076293945,1.9989999532699585 C37.82500076293945,1.9989999532699585 -0.6169999837875366,-68.3270034790039 -0.6169999837875366,-68.3270034790039"></path></g></g></g></g><clipPath id="__lottie_element_14"><path d="M0,0 L500,0 L500,500 L0,500z"></path></clipPath><g id="__lottie_element_23"><g clip-path="url(#__lottie_element_24)" transform="matrix(1,0,0,1,0,0)" opacity="1" style="display: block;"><g transform="matrix(1,0,0,1,329.6960144042969,340.93402099609375)" opacity="1" style="display: block;"><g opacity="1" transform="matrix(1,0,0,1,0,0)"><path fill="rgb(255,255,255)" fill-opacity="1" d=" M0,74.99400329589844 C0,74.99400329589844 -98.08899688720703,74.99400329589844 -98.08899688720703,74.99400329589844 C-98.08899688720703,74.99400329589844 -49.04499816894531,-8.151000022888184 -49.04499816894531,-8.151000022888184 C-49.04499816894531,-8.151000022888184 -14.579999923706055,-66.5790023803711 -14.579999923706055,-66.5790023803711 C-7.961999893188477,-77.79900360107422 7.961999893188477,-77.79900360107422 14.579999923706055,-66.5790023803711 C14.579999923706055,-66.5790023803711 49.04499816894531,-8.151000022888184 49.04499816894531,-8.151000022888184 C49.04499816894531,-8.151000022888184 98.08899688720703,74.99400329589844 98.08899688720703,74.99400329589844 C98.08899688720703,74.99400329589844 0,74.99400329589844 0,74.99400329589844z"></path><path stroke-linecap="round" stroke-linejoin="round" fill-opacity="0" stroke="rgb(18,19,49)" stroke-opacity="1" stroke-width="0" d=" M0,74.99400329589844 C0,74.99400329589844 -98.08899688720703,74.99400329589844 -98.08899688720703,74.99400329589844 C-98.08899688720703,74.99400329589844 -49.04499816894531,-8.151000022888184 -49.04499816894531,-8.151000022888184 C-49.04499816894531,-8.151000022888184 -14.579999923706055,-66.5790023803711 -14.579999923706055,-66.5790023803711 C-7.961999893188477,-77.79900360107422 7.961999893188477,-77.79900360107422 14.579999923706055,-66.5790023803711 C14.579999923706055,-66.5790023803711 49.04499816894531,-8.151000022888184 49.04499816894531,-8.151000022888184 C49.04499816894531,-8.151000022888184 98.08899688720703,74.99400329589844 98.08899688720703,74.99400329589844 C98.08899688720703,74.99400329589844 0,74.99400329589844 0,74.99400329589844z"></path></g></g><g transform="matrix(1,0,0,1,305.166015625,286.82000732421875)" opacity="1" style="display: block;"><path fill="rgb(255,0,0)" fill-opacity="1" d=" M33.57400131225586,18.63599967956543 C33.57400131225586,18.63599967956543 34.957000732421875,15.411999702453613 34.957000732421875,15.411999702453613 C40.61800003051758,2.2160000801086426 34.5099983215332,-13.071999549865723 21.31399917602539,-18.732999801635742 C21.31399917602539,-18.732999801635742 -15.1850004196167,-34.391998291015625 -15.1850004196167,-34.391998291015625 C-15.1850004196167,-34.391998291015625 -37.06999969482422,16.6200008392334 -37.06999969482422,16.6200008392334 C-37.06999969482422,16.6200008392334 -0.5699999928474426,32.27899932861328 -0.5699999928474426,32.27899932861328 C12.62600040435791,37.939998626708984 27.913000106811523,31.832000732421875 33.57400131225586,18.63599967956543z"></path><g opacity="1" transform="matrix(1,0,0,1,0,0)"><path stroke-linecap="round" stroke-linejoin="round" fill-opacity="0" stroke="rgb(18,19,49)" stroke-opacity="1" stroke-width="0" d=" M33.57400131225586,18.63599967956543 C33.57400131225586,18.63599967956543 34.957000732421875,15.411999702453613 34.957000732421875,15.411999702453613 C40.61800003051758,2.2160000801086426 34.5099983215332,-13.071999549865723 21.31399917602539,-18.732999801635742 C21.31399917602539,-18.732999801635742 -15.1850004196167,-34.391998291015625 -15.1850004196167,-34.391998291015625 C-15.1850004196167,-34.391998291015625 -37.06999969482422,16.6200008392334 -37.06999969482422,16.6200008392334 C-37.06999969482422,16.6200008392334 -0.5699999928474426,32.27899932861328 -0.5699999928474426,32.27899932861328 C12.62600040435791,37.939998626708984 27.913000106811523,31.832000732421875 33.57400131225586,18.63599967956543z"></path></g></g><g transform="matrix(1,0,0,1,143.8520050048828,322.80499267578125)" opacity="1" style="display: block;"><g opacity="1" transform="matrix(1,0,0,1,0,0)"><path fill="rgb(255,255,255)" fill-opacity="1" d=" M-13.647000312805176,-90.64099884033203 C-13.647000312805176,-90.64099884033203 -6.716000080108643,-2.0199999809265137 -6.716000080108643,-2.0199999809265137 C-6.716000080108643,-2.0199999809265137 -31.70400047302246,47.362998962402344 -31.70400047302246,47.362998962402344 C-31.70400047302246,47.362998962402344 -41.222999572753906,64.92500305175781 -41.222999572753906,64.92500305175781 C-41.222999572753906,64.92500305175781 -0.08100000023841858,86.7770004272461 7.291999816894531,90.64099884033203 C18.648000717163086,84.19499969482422 3.265000104904175,60.01900100708008 3.265000104904175,60.01900100708008 C3.265000104904175,60.01900100708008 31.312999725341797,8.625 31.312999725341797,8.625 C34.61600112915039,-17.23900032043457 37.91999816894531,-41.207000732421875 41.222999572753906,-67.07099914550781"></path><path stroke-linecap="round" stroke-linejoin="round" fill-opacity="0" stroke="rgb(18,19,49)" stroke-opacity="1" stroke-width="0" d=" M-13.647000312805176,-90.64099884033203 C-13.647000312805176,-90.64099884033203 -6.716000080108643,-2.0199999809265137 -6.716000080108643,-2.0199999809265137 C-6.716000080108643,-2.0199999809265137 -31.70400047302246,47.362998962402344 -31.70400047302246,47.362998962402344 C-31.70400047302246,47.362998962402344 -41.222999572753906,64.92500305175781 -41.222999572753906,64.92500305175781 C-41.222999572753906,64.92500305175781 -0.08100000023841858,86.7770004272461 7.291999816894531,90.64099884033203 C18.648000717163086,84.19499969482422 3.265000104904175,60.01900100708008 3.265000104904175,60.01900100708008 C3.265000104904175,60.01900100708008 31.312999725341797,8.625 31.312999725341797,8.625 C34.61600112915039,-17.23900032043457 37.91999816894531,-41.207000732421875 41.222999572753906,-67.07099914550781"></path></g></g></g></g><clipPath id="__lottie_element_24"><path d="M0,0 L500,0 L500,500 L0,500z"></path></clipPath><g id="__lottie_element_30"><g transform="matrix(1,0,0,1,129.94000244140625,191.07000732421875)" opacity="1" style="display: block;"><g opacity="1" transform="matrix(1,0,0,1,0,0)"><path fill="rgb(255,255,255)" fill-opacity="1" d=" M48.902000427246094,-8.376999855041504 C48.902000427246094,-8.376999855041504 -6.776000022888184,-0.8550000190734863 -6.776000022888184,-0.8550000190734863 C-6.776000022888184,-0.8550000190734863 -31.08799934387207,41.20100021362305 -31.08799934387207,41.20100021362305 C-31.08799934387207,41.20100021362305 -52.930999755859375,37.832000732421875 -48.590999603271484,15.970000267028809 C-48.590999603271484,15.970000267028809 -21.937000274658203,-28.04800033569336 -21.937000274658203,-28.04800033569336 C-21.937000274658203,-28.04800033569336 49.1619987487793,-41.20100021362305 49.1619987487793,-41.20100021362305"></path><path stroke-linecap="round" stroke-linejoin="round" fill-opacity="0" stroke="rgb(8,168,138)" stroke-opacity="1" stroke-width="0" d=" M48.902000427246094,-8.376999855041504 C48.902000427246094,-8.376999855041504 -6.776000022888184,-0.8550000190734863 -6.776000022888184,-0.8550000190734863 C-6.776000022888184,-0.8550000190734863 -31.08799934387207,41.20100021362305 -31.08799934387207,41.20100021362305 C-31.08799934387207,41.20100021362305 -52.930999755859375,37.832000732421875 -48.590999603271484,15.970000267028809 C-48.590999603271484,15.970000267028809 -21.937000274658203,-28.04800033569336 -21.937000274658203,-28.04800033569336 C-21.937000274658203,-28.04800033569336 49.1619987487793,-41.20100021362305 49.1619987487793,-41.20100021362305"></path></g></g></g><g id="__lottie_element_36"><g transform="matrix(1,0,0,1,329.69598388671875,340.9339904785156)" opacity="1" style="display: block;"><g opacity="1" transform="matrix(1,0,0,1,0,0)"><path fill="rgb(255,255,255)" fill-opacity="1" d=" M0,74.99400329589844 C0,74.99400329589844 -98.08899688720703,74.99400329589844 -98.08899688720703,74.99400329589844 C-98.08899688720703,74.99400329589844 -49.04499816894531,-8.151000022888184 -49.04499816894531,-8.151000022888184 C-49.04499816894531,-8.151000022888184 -14.579999923706055,-66.5790023803711 -14.579999923706055,-66.5790023803711 C-7.961999893188477,-77.79900360107422 7.961999893188477,-77.79900360107422 14.579999923706055,-66.5790023803711 C14.579999923706055,-66.5790023803711 49.04499816894531,-8.151000022888184 49.04499816894531,-8.151000022888184 C49.04499816894531,-8.151000022888184 98.08899688720703,74.99400329589844 98.08899688720703,74.99400329589844 C98.08899688720703,74.99400329589844 0,74.99400329589844 0,74.99400329589844z"></path><path stroke-linecap="round" stroke-linejoin="round" fill-opacity="0" stroke="rgb(18,19,49)" stroke-opacity="1" stroke-width="0" d=" M0,74.99400329589844 C0,74.99400329589844 -98.08899688720703,74.99400329589844 -98.08899688720703,74.99400329589844 C-98.08899688720703,74.99400329589844 -49.04499816894531,-8.151000022888184 -49.04499816894531,-8.151000022888184 C-49.04499816894531,-8.151000022888184 -14.579999923706055,-66.5790023803711 -14.579999923706055,-66.5790023803711 C-7.961999893188477,-77.79900360107422 7.961999893188477,-77.79900360107422 14.579999923706055,-66.5790023803711 C14.579999923706055,-66.5790023803711 49.04499816894531,-8.151000022888184 49.04499816894531,-8.151000022888184 C49.04499816894531,-8.151000022888184 98.08899688720703,74.99400329589844 98.08899688720703,74.99400329589844 C98.08899688720703,74.99400329589844 0,74.99400329589844 0,74.99400329589844z"></path></g></g></g><g id="__lottie_element_42"><g transform="matrix(1,0,0,1,129.94000244140625,191.07000732421875)" opacity="1" style="display: block;"><g opacity="1" transform="matrix(1,0,0,1,0,0)"><path fill="rgb(255,255,255)" fill-opacity="1" d=" M48.902000427246094,-8.376999855041504 C48.902000427246094,-8.376999855041504 -6.776000022888184,-0.8550000190734863 -6.776000022888184,-0.8550000190734863 C-6.776000022888184,-0.8550000190734863 -31.08799934387207,41.20100021362305 -31.08799934387207,41.20100021362305 C-31.08799934387207,41.20100021362305 -52.930999755859375,37.832000732421875 -48.590999603271484,15.970000267028809 C-48.590999603271484,15.970000267028809 -21.937000274658203,-28.04800033569336 -21.937000274658203,-28.04800033569336 C-21.937000274658203,-28.04800033569336 49.1619987487793,-41.20100021362305 49.1619987487793,-41.20100021362305"></path><path stroke-linecap="round" stroke-linejoin="round" fill-opacity="0" stroke="rgb(8,168,138)" stroke-opacity="1" stroke-width="0" d=" M48.902000427246094,-8.376999855041504 C48.902000427246094,-8.376999855041504 -6.776000022888184,-0.8550000190734863 -6.776000022888184,-0.8550000190734863 C-6.776000022888184,-0.8550000190734863 -31.08799934387207,41.20100021362305 -31.08799934387207,41.20100021362305 C-31.08799934387207,41.20100021362305 -52.930999755859375,37.832000732421875 -48.590999603271484,15.970000267028809 C-48.590999603271484,15.970000267028809 -21.937000274658203,-28.04800033569336 -21.937000274658203,-28.04800033569336 C-21.937000274658203,-28.04800033569336 49.1619987487793,-41.20100021362305 49.1619987487793,-41.20100021362305"></path></g></g></g><filter id="__lottie_element_53" filterUnits="objectBoundingBox" x="0%" y="0%" width="100%" height="100%"><feComponentTransfer in="SourceGraphic"><feFuncA type="table" tableValues="1.0 0.0"></feFuncA></feComponentTransfer></filter><mask id="__lottie_element_42_2" mask-type="alpha"><g filter="url(#__lottie_element_53)"><rect width="500" height="500" x="0" y="0" fill="#ffffff" opacity="0"></rect><use xlink:href="#__lottie_element_42"></use></g></mask><filter id="__lottie_element_54" filterUnits="objectBoundingBox" x="0%" y="0%" width="100%" height="100%"><feComponentTransfer in="SourceGraphic"><feFuncA type="table" tableValues="1.0 0.0"></feFuncA></feComponentTransfer></filter><mask id="__lottie_element_36_2" mask-type="alpha"><g filter="url(#__lottie_element_54)"><rect width="500" height="500" x="0" y="0" fill="#ffffff" opacity="0"></rect><use xlink:href="#__lottie_element_36"></use></g></mask><filter id="__lottie_element_55" filterUnits="objectBoundingBox" x="0%" y="0%" width="100%" height="100%"><feComponentTransfer in="SourceGraphic"><feFuncA type="table" tableValues="1.0 0.0"></feFuncA></feComponentTransfer></filter><mask id="__lottie_element_30_2" mask-type="alpha"><g filter="url(#__lottie_element_55)"><rect width="500" height="500" x="0" y="0" fill="#ffffff" opacity="0"></rect><use xlink:href="#__lottie_element_30"></use></g></mask><filter id="__lottie_element_56" filterUnits="objectBoundingBox" x="0%" y="0%" width="100%" height="100%"><feComponentTransfer in="SourceGraphic"><feFuncA type="table" tableValues="1.0 0.0"></feFuncA></feComponentTransfer></filter><mask id="__lottie_element_23_2" mask-type="alpha"><g filter="url(#__lottie_element_56)"><rect width="500" height="500" x="0" y="0" fill="#ffffff" opacity="0"></rect><use xlink:href="#__lottie_element_23"></use></g></mask><filter id="__lottie_element_57" filterUnits="objectBoundingBox" x="0%" y="0%" width="100%" height="100%"><feComponentTransfer in="SourceGraphic"><feFuncA type="table" tableValues="1.0 0.0"></feFuncA></feComponentTransfer></filter><mask id="__lottie_element_13_2" mask-type="alpha"><g filter="url(#__lottie_element_57)"><rect width="500" height="500" x="0" y="0" fill="#ffffff" opacity="0"></rect><use xlink:href="#__lottie_element_13"></use></g></mask><filter id="__lottie_element_58" filterUnits="objectBoundingBox" x="0%" y="0%" width="100%" height="100%"><feComponentTransfer in="SourceGraphic"><feFuncA type="table" tableValues="1.0 0.0"></feFuncA></feComponentTransfer></filter><mask id="__lottie_element_8_2" mask-type="alpha"><g filter="url(#__lottie_element_58)"><rect width="500" height="500" x="0" y="0" fill="#ffffff" opacity="0"></rect><use xlink:href="#__lottie_element_8"></use></g></mask></defs><g clip-path="url(#__lottie_element_2)"><g mask="url(#__lottie_element_13_2)" style="display: block;"><g transform="matrix(1,0,0,1,220.63800048828125,221.23599243164062)" opacity="1"><g opacity="1" transform="matrix(1,0,0,1,0,0)"><path stroke-linecap="round" stroke-linejoin="round" fill-opacity="0" stroke="rgb(51,177,201)" stroke-opacity="1" stroke-width="8.427999999999999" d=" M-6.580999851226807,-50.79199981689453 C-6.580999851226807,-50.79199981689453 0.25699999928474426,5.353000164031982 0.25699999928474426,5.353000164031982 C0.25699999928474426,5.353000164031982 37.56700134277344,49.757999420166016 37.56700134277344,49.757999420166016 C37.56700134277344,49.757999420166016 27.333999633789062,69.3479995727539 8.039999961853027,58.1879997253418 C8.039999961853027,58.1879997253418 -25.02899932861328,18.76099967956543 -25.02899932861328,18.76099967956543 C-25.02899932861328,18.76099967956543 -37.56700134277344,-61.625 -37.56700134277344,-61.625"></path></g></g></g><g transform="matrix(1,0,0,1,219.21200561523438,109.48300170898438)" opacity="1" style="display: block;"><g opacity="1" transform="matrix(1,0,0,1,0,0)"><path stroke-linecap="round" stroke-linejoin="round" fill-opacity="0" stroke="rgb(51,177,201)" stroke-opacity="1" stroke-width="8.427999999999999" d=" M-11.644000053405762,22.677000045776367 C-11.644000053405762,22.677000045776367 3.4519999027252197,29.15999984741211 3.4519999027252197,29.15999984741211 C6.633999824523926,30.527000427246094 10.354999542236328,29.041000366210938 11.722000122070312,25.858999252319336 C11.722000122070312,25.858999252319336 22.680999755859375,0.34299999475479126 22.680999755859375,0.34299999475479126 C27.25,-10.295999526977539 22.283000946044922,-22.739999771118164 11.644000053405762,-27.30900001525879 C11.644000053405762,-27.30900001525879 10.105999946594238,-27.9689998626709 10.105999946594238,-27.9689998626709 C-0.5329999923706055,-32.53799819946289 -12.97599983215332,-27.570999145507812 -17.545000076293945,-16.93199920654297 C-17.545000076293945,-16.93199920654297 -22.680999755859375,-4.973999977111816 -22.680999755859375,-4.973999977111816 C-27.25,5.664999961853027 -22.283000946044922,18.107999801635742 -11.644000053405762,22.677000045776367z"></path></g></g><g mask="url(#__lottie_element_23_2)" style="display: block;"><g transform="matrix(1,0,0,1,185.67799377441406,324.0460205078125)" opacity="1"><g opacity="1" transform="matrix(1,0,0,1,0,0)"><path stroke-linecap="round" stroke-linejoin="round" fill-opacity="0" stroke="rgb(51,177,201)" stroke-opacity="1" stroke-width="8.427999999999999" d=" M-55.470001220703125,-91.88200378417969 C-55.470001220703125,-91.88200378417969 -0.4000000059604645,8.944999694824219 -0.4000000059604645,8.944999694824219 C-0.4000000059604645,8.944999694824219 0.5239999890327454,91.88200378417969 0.5239999890327454,91.88200378417969 C18.25200080871582,91.88200378417969 35.98099899291992,91.88200378417969 53.70899963378906,91.88200378417969 C62.154998779296875,78.2040023803711 37.55699920654297,65.36100006103516 36.099998474121094,64.99800109863281 C36.67499923706055,43.99800109863281 37.25,22.999000549316406 37.82500076293945,1.9989999532699585 C37.82500076293945,1.9989999532699585 -0.6169999837875366,-68.3270034790039 -0.6169999837875366,-68.3270034790039"></path></g></g></g><g mask="url(#__lottie_element_30_2)" style="display: block;"><g transform="matrix(1,0,0,1,143.8520050048828,322.80499267578125)" opacity="1"><g opacity="1" transform="matrix(1,0,0,1,0,0)"><path stroke-linecap="round" stroke-linejoin="round" fill-opacity="0" stroke="rgb(51,177,201)" stroke-opacity="1" stroke-width="8.427999999999999" d=" M-13.647000312805176,-90.64099884033203 C-13.647000312805176,-90.64099884033203 -6.716000080108643,-2.0199999809265137 -6.716000080108643,-2.0199999809265137 C-6.716000080108643,-2.0199999809265137 -31.70400047302246,47.362998962402344 -31.70400047302246,47.362998962402344 C-31.70400047302246,47.362998962402344 -41.222999572753906,64.92500305175781 -41.222999572753906,64.92500305175781 C-41.222999572753906,64.92500305175781 -0.08100000023841858,86.7770004272461 7.291999816894531,90.64099884033203 C18.648000717163086,84.19499969482422 3.265000104904175,60.01900100708008 3.265000104904175,60.01900100708008 C3.265000104904175,60.01900100708008 31.312999725341797,8.625 31.312999725341797,8.625 C34.61600112915039,-17.23900032043457 37.91999816894531,-41.207000732421875 41.222999572753906,-67.07099914550781"></path></g></g></g><g mask="url(#__lottie_element_8_2)" style="display: block;"><g transform="matrix(1,0,0,1,172.80299377441406,202.4429931640625)" opacity="1"><g opacity="1" transform="matrix(1,0,0,1,0,0)"><path stroke-linecap="round" stroke-linejoin="round" fill-opacity="0" stroke="rgb(51,177,201)" stroke-opacity="1" stroke-width="8.427999999999999" d=" M12.28499984741211,53.290000915527344 C12.28499984741211,53.290000915527344 -42.59700012207031,29.719999313354492 -42.59700012207031,29.719999313354492 C-42.59700012207031,29.719999313354492 -14.715999603271484,-35.20199966430664 -14.715999603271484,-35.20199966430664 C-8.206999778747559,-50.356998443603516 9.354999542236328,-57.367000579833984 24.510000228881836,-50.85900115966797 C24.510000228881836,-50.85900115966797 24.510000228881836,-50.85900115966797 24.510000228881836,-50.85900115966797 C39.665000915527344,-44.35100173950195 46.67499923706055,-26.788000106811523 40.16600036621094,-11.633000373840332 C40.16600036621094,-11.633000373840332 12.28499984741211,53.290000915527344 12.28499984741211,53.290000915527344z"></path></g></g></g><g mask="url(#__lottie_element_36_2)" style="display: block;"><g transform="matrix(1,0,0,1,305.166015625,286.82000732421875)" opacity="1"><g opacity="1" transform="matrix(1,0,0,1,0,0)"><path stroke-linecap="round" stroke-linejoin="round" fill-opacity="0" stroke="rgb(51,177,201)" stroke-opacity="1" stroke-width="8.427999999999999" d=" M33.57400131225586,18.63599967956543 C33.57400131225586,18.63599967956543 34.957000732421875,15.411999702453613 34.957000732421875,15.411999702453613 C40.61800003051758,2.2160000801086426 34.5099983215332,-13.071999549865723 21.31399917602539,-18.732999801635742 C21.31399917602539,-18.732999801635742 -15.1850004196167,-34.391998291015625 -15.1850004196167,-34.391998291015625 C-15.1850004196167,-34.391998291015625 -37.06999969482422,16.6200008392334 -37.06999969482422,16.6200008392334 C-37.06999969482422,16.6200008392334 -0.5699999928474426,32.27899932861328 -0.5699999928474426,32.27899932861328 C12.62600040435791,37.939998626708984 27.913000106811523,31.832000732421875 33.57400131225586,18.63599967956543z"></path></g></g></g><g mask="url(#__lottie_element_42_2)" style="display: block;"><g transform="matrix(1,0,0,1,305.166015625,286.82000732421875)" opacity="1"><g opacity="1" transform="matrix(1,0,0,1,0,0)"><path stroke-linecap="round" stroke-linejoin="round" fill-opacity="0" stroke="rgb(51,177,201)" stroke-opacity="1" stroke-width="8.427999999999999" d=" M-26.20599937438965,-8.965999603271484 C-26.20599937438965,-8.965999603271484 -247.79400634765625,-104.03399658203125 -247.79400634765625,-104.03399658203125"></path></g></g></g><g transform="matrix(1,0,0,1,129.94000244140625,191.07000732421875)" opacity="1" style="display: block;"><g opacity="1" transform="matrix(1,0,0,1,0,0)"><path stroke-linecap="round" stroke-linejoin="round" fill-opacity="0" stroke="rgb(51,177,201)" stroke-opacity="1" stroke-width="8.427999999999999" d=" M48.902000427246094,-8.376999855041504 C48.902000427246094,-8.376999855041504 -6.776000022888184,-0.8550000190734863 -6.776000022888184,-0.8550000190734863 C-6.776000022888184,-0.8550000190734863 -31.08799934387207,41.20100021362305 -31.08799934387207,41.20100021362305 C-31.08799934387207,41.20100021362305 -52.930999755859375,37.832000732421875 -48.590999603271484,15.970000267028809 C-48.590999603271484,15.970000267028809 -21.937000274658203,-28.04800033569336 -21.937000274658203,-28.04800033569336 C-21.937000274658203,-28.04800033569336 49.1619987487793,-41.20100021362305 49.1619987487793,-41.20100021362305"></path></g></g><g transform="matrix(1,0,0,1,329.69598388671875,340.9339904785156)" opacity="1" style="display: block;"><g opacity="1" transform="matrix(1,0,0,1,0,0)"><path stroke-linecap="round" stroke-linejoin="round" fill-opacity="0" stroke="rgb(51,177,201)" stroke-opacity="1" stroke-width="8.427999999999999" d=" M0,74.99400329589844 C0,74.99400329589844 -98.08899688720703,74.99400329589844 -98.08899688720703,74.99400329589844 C-98.08899688720703,74.99400329589844 -49.04499816894531,-8.151000022888184 -49.04499816894531,-8.151000022888184 C-49.04499816894531,-8.151000022888184 -14.579999923706055,-66.5790023803711 -14.579999923706055,-66.5790023803711 C-7.961999893188477,-77.79900360107422 7.961999893188477,-77.79900360107422 14.579999923706055,-66.5790023803711 C14.579999923706055,-66.5790023803711 49.04499816894531,-8.151000022888184 49.04499816894531,-8.151000022888184 C49.04499816894531,-8.151000022888184 98.08899688720703,74.99400329589844 98.08899688720703,74.99400329589844 C98.08899688720703,74.99400329589844 0,74.99400329589844 0,74.99400329589844z"></path></g></g></g></svg>