<svg xmlns="http://www.w3.org/2000/svg" xmlns:xlink="http://www.w3.org/1999/xlink" viewBox="0 0 500 500" width="500" height="500" preserveAspectRatio="xMidYMid meet" style="width: 100%; height: 100%; transform: translate3d(0px, 0px, 0px); content-visibility: visible;"><defs><clipPath id="__lottie_element_2"><rect width="500" height="500" x="0" y="0"></rect></clipPath></defs><g clip-path="url(#__lottie_element_2)"><g transform="matrix(1,0,0,1,-0.0000152587890625,0)" opacity="1" style="display: block;"><g opacity="1" transform="matrix(1,0,0,1,352.57501220703125,332.7959899902344)"><path stroke-linecap="round" stroke-linejoin="round" fill-opacity="0" stroke="rgb(51,177,201)" stroke-opacity="1" stroke-width="8.427999999999999" d=" M-0.10199999809265137,0 C-0.10199999809265137,0 0.10199999809265137,0 0.10199999809265137,0"></path></g><g opacity="1" transform="matrix(1,0,0,1,352.57501220703125,332.7959899902344)"><path stroke-linecap="round" stroke-linejoin="round" fill-opacity="0" stroke="rgb(51,177,201)" stroke-opacity="1" stroke-width="8.427999999999999" d=" M-33.858001708984375,0 C-33.858001708984375,18.698999404907227 -18.698999404907227,33.858001708984375 0,33.858001708984375 C18.698999404907227,33.858001708984375 33.858001708984375,18.698999404907227 33.858001708984375,0 C33.858001708984375,-18.698999404907227 18.698999404907227,-33.858001708984375 0,-33.858001708984375 C-18.698999404907227,-33.858001708984375 -33.858001708984375,-18.698999404907227 -33.858001708984375,0z"></path></g></g><g transform="matrix(1,0,0,1,238.5850067138672,332.79901123046875)" opacity="1" style="display: block;"><g opacity="1" transform="matrix(1,0,0,1,0,0)"><path stroke-linecap="round" stroke-linejoin="round" fill-opacity="0" stroke="rgb(51,177,201)" stroke-opacity="1" stroke-width="8.427999999999999" d=" M80.13500213623047,0 C80.13500213623047,0 -80.13500213623047,0 -80.13500213623047,0"></path></g></g><g transform="matrix(1,0,0,1,0,0)" opacity="1" style="display: block;"><g opacity="1" transform="matrix(1,0,0,1,18.236000061035156,182.83299255371094)"><path stroke-linecap="round" stroke-linejoin="round" fill-opacity="0" stroke="rgb(51,177,201)" stroke-opacity="1" stroke-width="8.427999999999999" d=" M0,0"></path></g><g opacity="1" transform="matrix(1,0,0,1,413.0199890136719,276.0190124511719)"><path stroke-linecap="round" stroke-linejoin="round" fill-opacity="0" stroke="rgb(51,177,201)" stroke-opacity="1" stroke-width="8.427999999999999" d=" M22.520000457763672,17 C22.520000457763672,17 -7.409999847412109,17 -7.409999847412109,17 C-15.760000228881836,17 -22.520000457763672,10.239999771118164 -22.520000457763672,1.899999976158142 C-22.520000457763672,1.899999976158142 -22.520000457763672,-1.8899999856948853 -22.520000457763672,-1.8899999856948853 C-22.520000457763672,-10.229999542236328 -15.760000228881836,-17 -7.409999847412109,-17 C-7.409999847412109,-17 -1.9900000095367432,-17 -1.9900000095367432,-17"></path></g><g opacity="1" transform="matrix(1,0,0,1,75.4209976196289,275.53900146484375)"><path stroke-linecap="round" stroke-linejoin="round" fill-opacity="0" stroke="rgb(51,177,201)" stroke-opacity="1" stroke-width="8.427999999999999" d=" M-12.230999946594238,-19.170000076293945 C-12.230999946594238,-19.170000076293945 7.545000076293945,-12.164999961853027 7.545000076293945,-12.164999961853027 C12.602999687194824,-10.37399959564209 13.871000289916992,-3.805000066757202 9.843000411987305,-0.25999999046325684 C9.843000411987305,-0.25999999046325684 -12.230999946594238,19.170000076293945 -12.230999946594238,19.170000076293945"></path></g><g opacity="1" transform="matrix(1,0,0,1,246.67999267578125,252.85400390625)"><path stroke-linecap="round" stroke-linejoin="round" fill-opacity="0" stroke="rgb(51,177,201)" stroke-opacity="1" stroke-width="8.427999999999999" d=" M-155.94000244140625,79.94499969482422 C-155.94000244140625,79.94499969482422 -186.49000549316406,79.94499969482422 -186.49000549316406,79.94499969482422 C-192.25,60.82500076293945 -183.49000549316406,41.85499954223633 -183.49000549316406,41.85499954223633 C-183.49000549316406,41.85499954223633 -198.42999267578125,26.454999923706055 -183.49000549316406,3.515000104904175 C-183.49000549316406,3.515000104904175 -155.94000244140625,-78.57499694824219 -122.08999633789062,-79.94499969482422 C-122.08999633789062,-79.94499969482422 -7.349999904632568,-79.94499969482422 -7.349999904632568,-79.94499969482422 C16.65999984741211,-79.94499969482422 53.650001525878906,-42.60499954223633 72.5199966430664,-12.484999656677246 C72.5199966430664,-12.484999656677246 145.13999938964844,-0.7850000262260437 145.13999938964844,-0.7850000262260437 C152.30999755859375,0.32499998807907104 158.97000122070312,2.8450000286102295 164.83999633789062,6.454999923706055 C177.0399932861328,13.96500015258789 185.85000610351562,26.204999923706055 188.92999267578125,40.45500183105469 C188.92999267578125,40.45500183105469 190.1300048828125,57.04499816894531 190.1300048828125,57.04499816894531 C190.1300048828125,69.69200134277344 179.8769989013672,79.94499969482422 167.22999572753906,79.94499969482422 C167.22999572753906,79.94499969482422 139.75,79.94499969482422 139.75,79.94499969482422"></path></g><g opacity="1" transform="matrix(1,0,0,1,194.25999450683594,240.36900329589844)"><path stroke-linecap="round" stroke-linejoin="round" fill-opacity="0" stroke="rgb(51,177,201)" stroke-opacity="1" stroke-width="8.427999999999999" d=" M124.94000244140625,0 C124.94000244140625,0 -124.94000244140625,0 -124.94000244140625,0"></path></g><g opacity="1" transform="matrix(1,0,0,1,130.4600067138672,206.63900756835938)"><path stroke-linecap="round" stroke-linejoin="round" fill-opacity="0" stroke="rgb(51,177,201)" stroke-opacity="1" stroke-width="8.427999999999999" d=" M13.720000267028809,-33.72999954223633 C13.720000267028809,-33.72999954223633 -13.720000267028809,33.72999954223633 -13.720000267028809,33.72999954223633"></path></g><g opacity="1" transform="matrix(1,0,0,1,199.60899353027344,206.63900756835938)"><path stroke-linecap="round" stroke-linejoin="round" fill-opacity="0" stroke="rgb(51,177,201)" stroke-opacity="1" stroke-width="8.427999999999999" d=" M4.059000015258789,33.72999954223633 C4.059000015258789,33.72999954223633 -4.059000015258789,-33.72999954223633 -4.059000015258789,-33.72999954223633"></path></g><g opacity="1" transform="matrix(1,0,0,1,203.66700744628906,286.5820007324219)"><path stroke-linecap="round" stroke-linejoin="round" fill-opacity="0" stroke="rgb(51,177,201)" stroke-opacity="1" stroke-width="8.427999999999999" d=" M0,-46.2140007019043 C0,-46.2140007019043 0,46.2140007019043 0,46.2140007019043"></path></g><g opacity="1" transform="matrix(1,0,0,1,240.98800659179688,269.66400146484375)"><path stroke-linecap="round" stroke-linejoin="round" fill-opacity="0" stroke="rgb(51,177,201)" stroke-opacity="1" stroke-width="8.427999999999999" d=" M-10.673999786376953,0 C-10.673999786376953,0 10.673999786376953,0 10.673999786376953,0"></path></g></g><g transform="matrix(1,0,0,1,0,0)" opacity="1" style="display: block;"><g opacity="1" transform="matrix(1,0,0,1,124.59400177001953,332.7959899902344)"><path stroke-linecap="round" stroke-linejoin="round" fill-opacity="0" stroke="rgb(51,177,201)" stroke-opacity="1" stroke-width="8.427999999999999" d=" M-33.858001708984375,0 C-33.858001708984375,18.698999404907227 -18.698999404907227,33.858001708984375 0,33.858001708984375 C18.698999404907227,33.858001708984375 33.858001708984375,18.698999404907227 33.858001708984375,0 C33.858001708984375,-18.698999404907227 18.698999404907227,-33.858001708984375 0,-33.858001708984375 C-18.698999404907227,-33.858001708984375 -33.858001708984375,-18.698999404907227 -33.858001708984375,0z"></path></g><g opacity="1" transform="matrix(1,0,0,1,124.59400177001953,332.7959899902344)"><path stroke-linecap="round" stroke-linejoin="round" fill-opacity="0" stroke="rgb(51,177,201)" stroke-opacity="1" stroke-width="8.427999999999999" d=" M-0.10199999809265137,0 C-0.10199999809265137,0 0.10199999809265137,0 0.10199999809265137,0"></path></g></g><g transform="matrix(1,0,0,1,18.236000061035156,182.83299255371094)" opacity="1" style="display: block;"><g opacity="1" transform="matrix(1,0,0,1,0,0)"><path stroke-linecap="round" stroke-linejoin="round" fill-opacity="0" stroke="rgb(18,19,49)" stroke-opacity="1" stroke-width="12" d=" M0,0"></path></g></g></g></svg>